<mxfile host="app.diagrams.net" agent="Mozilla/5.0 (Windows NT 10.0; Win64; x64) AppleWebKit/537.36 (KHTML, like Gecko) Chrome/133.0.0.0 Safari/537.36" version="26.0.14">
  <diagram name="Page-1" id="aOAznq1yPv2-tUx42f_M">
    <mxGraphModel dx="1035" dy="1651" grid="1" gridSize="10" guides="1" tooltips="1" connect="1" arrows="1" fold="1" page="1" pageScale="1" pageWidth="850" pageHeight="1100" math="0" shadow="0">
      <root>
        <mxCell id="0" />
        <mxCell id="1" parent="0" />
        <mxCell id="K6o_-MYocCNg6YU_LOVS-1" value="User" style="whiteSpace=wrap;strokeWidth=2;" vertex="1" parent="1">
          <mxGeometry x="333" y="-30" width="92" height="54" as="geometry" />
        </mxCell>
        <mxCell id="K6o_-MYocCNg6YU_LOVS-3" value="Emergency Services - Police, Fire, Medical, Legal" style="whiteSpace=wrap;strokeWidth=2;" vertex="1" parent="1">
          <mxGeometry x="20" y="380" width="260" height="78" as="geometry" />
        </mxCell>
        <mxCell id="K6o_-MYocCNg6YU_LOVS-4" value="Government Databases &amp; API Services" style="whiteSpace=wrap;strokeWidth=2;" vertex="1" parent="1">
          <mxGeometry x="340" y="380" width="260" height="78" as="geometry" />
        </mxCell>
        <mxCell id="K6o_-MYocCNg6YU_LOVS-5" value="Emergency Requests &amp; User Database" style="shape=cylinder3;boundedLbl=1;backgroundOutline=1;size=10;strokeWidth=2;whiteSpace=wrap;" vertex="1" parent="1">
          <mxGeometry x="660" y="364" width="215" height="110" as="geometry" />
        </mxCell>
        <mxCell id="K6o_-MYocCNg6YU_LOVS-6" value="Initiates Emergency Request" style="curved=1;startArrow=none;endArrow=block;exitX=0.19;exitY=1;rounded=0;entryX=0.399;entryY=-0.021;entryDx=0;entryDy=0;entryPerimeter=0;" edge="1" parent="1" source="K6o_-MYocCNg6YU_LOVS-1" target="K6o_-MYocCNg6YU_LOVS-13">
          <mxGeometry relative="1" as="geometry">
            <Array as="points">
              <mxPoint x="310" y="119" />
            </Array>
            <mxPoint x="330" y="110" as="targetPoint" />
          </mxGeometry>
        </mxCell>
        <mxCell id="K6o_-MYocCNg6YU_LOVS-7" value="Sends Data" style="curved=1;startArrow=none;endArrow=block;entryX=0.39;entryY=0;rounded=0;exitX=0;exitY=0.615;exitDx=0;exitDy=0;exitPerimeter=0;" edge="1" parent="1" source="K6o_-MYocCNg6YU_LOVS-13" target="K6o_-MYocCNg6YU_LOVS-3">
          <mxGeometry x="-0.1485" y="13" relative="1" as="geometry">
            <Array as="points">
              <mxPoint x="80" y="255" />
            </Array>
            <mxPoint x="200" y="240" as="sourcePoint" />
            <mxPoint as="offset" />
          </mxGeometry>
        </mxCell>
        <mxCell id="K6o_-MYocCNg6YU_LOVS-8" value="Responds with Status" style="curved=1;startArrow=none;endArrow=block;exitX=0.64;exitY=0;rounded=0;entryX=0;entryY=1;entryDx=0;entryDy=0;" edge="1" parent="1" source="K6o_-MYocCNg6YU_LOVS-3" target="K6o_-MYocCNg6YU_LOVS-13">
          <mxGeometry relative="1" as="geometry">
            <Array as="points">
              <mxPoint x="234" y="255" />
            </Array>
            <mxPoint x="270" y="290" as="targetPoint" />
          </mxGeometry>
        </mxCell>
        <mxCell id="K6o_-MYocCNg6YU_LOVS-9" value="Updates Status" style="curved=1;startArrow=none;endArrow=block;entryX=0.8;entryY=1;rounded=0;exitX=0.74;exitY=0.087;exitDx=0;exitDy=0;exitPerimeter=0;" edge="1" parent="1" source="K6o_-MYocCNg6YU_LOVS-13" target="K6o_-MYocCNg6YU_LOVS-1">
          <mxGeometry relative="1" as="geometry">
            <Array as="points">
              <mxPoint x="459" y="119" />
            </Array>
            <mxPoint x="430" y="119" as="sourcePoint" />
          </mxGeometry>
        </mxCell>
        <mxCell id="K6o_-MYocCNg6YU_LOVS-10" value="Shares Data" style="curved=1;startArrow=none;endArrow=block;entryX=0.38;entryY=0;rounded=0;exitX=0.633;exitY=1.001;exitDx=0;exitDy=0;exitPerimeter=0;" edge="1" parent="1" source="K6o_-MYocCNg6YU_LOVS-13" target="K6o_-MYocCNg6YU_LOVS-4">
          <mxGeometry relative="1" as="geometry">
            <Array as="points">
              <mxPoint x="384" y="255" />
            </Array>
            <mxPoint x="420" y="280" as="sourcePoint" />
          </mxGeometry>
        </mxCell>
        <mxCell id="K6o_-MYocCNg6YU_LOVS-11" value="Provides Additional Info" style="curved=1;startArrow=none;endArrow=block;exitX=0.62;exitY=0;rounded=0;" edge="1" parent="1" source="K6o_-MYocCNg6YU_LOVS-4" target="K6o_-MYocCNg6YU_LOVS-13">
          <mxGeometry relative="1" as="geometry">
            <Array as="points">
              <mxPoint x="536" y="255" />
            </Array>
            <mxPoint x="460" y="260" as="targetPoint" />
          </mxGeometry>
        </mxCell>
        <mxCell id="K6o_-MYocCNg6YU_LOVS-12" value="Stores Data" style="curved=1;startArrow=none;endArrow=block;entryX=0.5;entryY=0;rounded=0;exitX=1;exitY=0.5;exitDx=0;exitDy=0;" edge="1" parent="1" source="K6o_-MYocCNg6YU_LOVS-13" target="K6o_-MYocCNg6YU_LOVS-5">
          <mxGeometry x="-0.0773" y="-13" relative="1" as="geometry">
            <Array as="points">
              <mxPoint x="754" y="255" />
            </Array>
            <mxPoint x="540" y="240" as="sourcePoint" />
            <mxPoint as="offset" />
          </mxGeometry>
        </mxCell>
        <mxCell id="K6o_-MYocCNg6YU_LOVS-13" value="Emergency Response&lt;div&gt;System&lt;/div&gt;" style="ellipse;whiteSpace=wrap;html=1;" vertex="1" parent="1">
          <mxGeometry x="240" y="140" width="251.5" height="130" as="geometry" />
        </mxCell>
      </root>
    </mxGraphModel>
  </diagram>
</mxfile>
